<?xml version="1.0" encoding="UTF-8" standalone="no"?>
<!-- Created with matplotlib (https://matplotlib.org/) -->

<svg
   height="199.04721pt"
   version="1.1"
   viewBox="0 0 539.06086 199.04721"
   width="539.06085pt"
   id="svg28050"
   sodipodi:docname="ratio.svg"
   inkscape:version="1.2.1 (9c6d41e410, 2022-07-14)"
   xmlns:inkscape="http://www.inkscape.org/namespaces/inkscape"
   xmlns:sodipodi="http://sodipodi.sourceforge.net/DTD/sodipodi-0.dtd"
   xmlns:xlink="http://www.w3.org/1999/xlink"
   xmlns="http://www.w3.org/2000/svg"
   xmlns:svg="http://www.w3.org/2000/svg">
  <sodipodi:namedview
     id="namedview28052"
     pagecolor="#ffffff"
     bordercolor="#666666"
     borderopacity="1.0"
     inkscape:showpageshadow="2"
     inkscape:pageopacity="0.0"
     inkscape:pagecheckerboard="0"
     inkscape:deskcolor="#d1d1d1"
     inkscape:document-units="pt"
     showgrid="false"
     inkscape:zoom="0.94207247"
     inkscape:cx="159.22342"
     inkscape:cy="197.43704"
     inkscape:window-width="1920"
     inkscape:window-height="1017"
     inkscape:window-x="-8"
     inkscape:window-y="-8"
     inkscape:window-maximized="1"
     inkscape:current-layer="axes_1" />
  <defs
     id="defs27694">
    <style
       type="text/css"
       id="style27692">
*{stroke-linecap:butt;stroke-linejoin:round;}
  </style>
  </defs>
  <g
     id="figure_1"
     transform="translate(-91.296813,-11.977661)">
    <g
       id="patch_1"
       transform="matrix(0.78052327,0,0,0.78052327,79.011621,0)" />
    <g
       id="axes_1"
       transform="matrix(0.78052327,0,0,0.78052327,79.011621,0)">
      <g
         id="matplotlib.axis_1">
        <g
           id="xtick_1">
          <g
             id="line2d_1">
            <path
               clip-path="url(#p584e435b63)"
               d="M 96.500455,236.8299 V 20.4174"
               style="fill:none;stroke:#cbcbcb"
               id="path27702" />
          </g>
          <g
             id="line2d_2" />
          <g
             id="text_1">
            <!-- 50 -->
            <defs
               id="defs27708">
              <path
                 d="m 10.796875,72.90625 h 38.71875 v -8.3125 h -29.6875 V 46.734375 q 2.140625,0.734375 4.28125,1.09375 2.15625,0.359375 4.3125,0.359375 Q 40.625,48.1875 47.75,41.5 54.890625,34.8125 54.890625,23.390625 54.890625,11.625 47.5625,5.09375 40.234375,-1.421875 26.90625,-1.421875 q -4.59375,0 -9.359375,0.78125 -4.75,0.78125 -9.828125,2.34375 V 11.625 q 4.390625,-2.390625 9.078125,-3.5625 4.6875,-1.171875 9.90625,-1.171875 8.453125,0 13.375,4.4375 4.9375,4.4375 4.9375,12.0625 0,7.609375 -4.9375,12.046875 -4.921875,4.453125 -13.375,4.453125 -3.953125,0 -7.890625,-0.875 -3.921875,-0.875 -8.015625,-2.734375 z"
                 id="DejaVuSans-53" />
              <path
                 d="m 31.78125,66.40625 q -7.609375,0 -11.453125,-7.5 Q 16.5,51.421875 16.5,36.375 q 0,-14.984375 3.828125,-22.484375 3.84375,-7.5 11.453125,-7.5 7.671875,0 11.5,7.5 3.84375,7.5 3.84375,22.484375 0,15.046875 -3.84375,22.53125 -3.828125,7.5 -11.5,7.5 z m 0,7.8125 q 12.265625,0 18.734375,-9.703125 6.46875,-9.6875 6.46875,-28.140625 0,-18.40625 -6.46875,-28.109375 -6.46875,-9.6875 -18.734375,-9.6875 -12.25,0 -18.71875,9.6875 Q 6.59375,17.96875 6.59375,36.375 q 0,18.453125 6.46875,28.140625 6.46875,9.703125 18.71875,9.703125 z"
                 id="DejaVuSans-48" />
            </defs>
            <g
               transform="matrix(0.14,0,0,-0.14,87.592955,250.96771)"
               id="g27714">
              <use
                 xlink:href="#DejaVuSans-53"
                 id="use27710" />
              <use
                 x="63.623047"
                 xlink:href="#DejaVuSans-48"
                 id="use27712" />
            </g>
          </g>
        </g>
        <g
           id="xtick_2">
          <g
             id="line2d_3">
            <path
               clip-path="url(#p584e435b63)"
               d="M 168.92659,236.8299 V 20.4174"
               style="fill:none;stroke:#cbcbcb"
               id="path27718" />
          </g>
          <g
             id="line2d_4" />
          <g
             id="text_2">
            <!-- 55 -->
            <g
               transform="matrix(0.14,0,0,-0.14,160.01909,250.96771)"
               id="g27726">
              <use
                 xlink:href="#DejaVuSans-53"
                 id="use27722" />
              <use
                 x="63.623047"
                 xlink:href="#DejaVuSans-53"
                 id="use27724" />
            </g>
          </g>
        </g>
        <g
           id="xtick_3">
          <g
             id="line2d_5">
            <path
               clip-path="url(#p584e435b63)"
               d="M 241.35273,236.8299 V 20.4174"
               style="fill:none;stroke:#cbcbcb"
               id="path27730" />
          </g>
          <g
             id="line2d_6" />
          <g
             id="text_3">
            <!-- 60 -->
            <defs
               id="defs27735">
              <path
                 d="m 33.015625,40.375 q -6.640625,0 -10.53125,-4.546875 -3.875,-4.53125 -3.875,-12.4375 0,-7.859375 3.875,-12.4375 3.890625,-4.5625 10.53125,-4.5625 6.640625,0 10.515625,4.5625 3.875,4.578125 3.875,12.4375 0,7.90625 -3.875,12.4375 Q 39.65625,40.375 33.015625,40.375 Z M 52.59375,71.296875 V 62.3125 q -3.71875,1.75 -7.5,2.671875 -3.78125,0.9375 -7.5,0.9375 -9.765625,0 -14.921875,-6.59375 -5.140625,-6.59375 -5.875,-19.921875 2.875,4.25 7.21875,6.515625 4.359375,2.265625 9.578125,2.265625 10.984375,0 17.359375,-6.671875 6.375,-6.65625 6.375,-18.125 0,-11.234375 -6.640625,-18.03125 -6.640625,-6.78125 -17.671875,-6.78125 -12.65625,0 -19.34375,9.6875 -6.6875,9.703125 -6.6875,28.109375 0,17.28125 8.203125,27.5625 8.203125,10.28125 22.015625,10.28125 3.71875,0 7.5,-0.734375 3.78125,-0.734375 7.890625,-2.1875 z"
                 id="DejaVuSans-54" />
            </defs>
            <g
               transform="matrix(0.14,0,0,-0.14,232.44523,250.96771)"
               id="g27741">
              <use
                 xlink:href="#DejaVuSans-54"
                 id="use27737" />
              <use
                 x="63.623047"
                 xlink:href="#DejaVuSans-48"
                 id="use27739" />
            </g>
          </g>
        </g>
        <g
           id="xtick_4">
          <g
             id="line2d_7">
            <path
               clip-path="url(#p584e435b63)"
               d="M 313.77886,236.8299 V 20.4174"
               style="fill:none;stroke:#cbcbcb"
               id="path27745" />
          </g>
          <g
             id="line2d_8" />
          <g
             id="text_4">
            <!-- 65 -->
            <g
               transform="matrix(0.14,0,0,-0.14,304.87136,250.96771)"
               id="g27753">
              <use
                 xlink:href="#DejaVuSans-54"
                 id="use27749" />
              <use
                 x="63.623047"
                 xlink:href="#DejaVuSans-53"
                 id="use27751" />
            </g>
          </g>
        </g>
        <g
           id="xtick_5">
          <g
             id="line2d_9">
            <path
               clip-path="url(#p584e435b63)"
               d="M 386.205,236.8299 V 20.4174"
               style="fill:none;stroke:#cbcbcb"
               id="path27757" />
          </g>
          <g
             id="line2d_10" />
          <g
             id="text_5">
            <!-- 70 -->
            <defs
               id="defs27762">
              <path
                 d="m 8.203125,72.90625 h 46.875 V 68.703125 L 28.609375,0 H 18.3125 L 43.21875,64.59375 H 8.203125 Z"
                 id="DejaVuSans-55" />
            </defs>
            <g
               transform="matrix(0.14,0,0,-0.14,377.2975,250.96771)"
               id="g27768">
              <use
                 xlink:href="#DejaVuSans-55"
                 id="use27764" />
              <use
                 x="63.623047"
                 xlink:href="#DejaVuSans-48"
                 id="use27766" />
            </g>
          </g>
        </g>
        <g
           id="xtick_6">
          <g
             id="line2d_11">
            <path
               clip-path="url(#p584e435b63)"
               d="M 458.63114,236.8299 V 20.4174"
               style="fill:none;stroke:#cbcbcb"
               id="path27772" />
          </g>
          <g
             id="line2d_12" />
          <g
             id="text_6">
            <!-- 75 -->
            <g
               transform="matrix(0.14,0,0,-0.14,449.72364,250.96771)"
               id="g27780">
              <use
                 xlink:href="#DejaVuSans-55"
                 id="use27776" />
              <use
                 x="63.623047"
                 xlink:href="#DejaVuSans-53"
                 id="use27778" />
            </g>
          </g>
        </g>
        <g
           id="xtick_7">
          <g
             id="line2d_13">
            <path
               clip-path="url(#p584e435b63)"
               d="M 531.05727,236.8299 V 20.4174"
               style="fill:none;stroke:#cbcbcb"
               id="path27784" />
          </g>
          <g
             id="line2d_14" />
          <g
             id="text_7">
            <!-- 80 -->
            <defs
               id="defs27789">
              <path
                 d="m 31.78125,34.625 q -7.03125,0 -11.0625,-3.765625 -4.015625,-3.765625 -4.015625,-10.34375 0,-6.59375 4.015625,-10.359375 4.03125,-3.765625 11.0625,-3.765625 7.03125,0 11.078125,3.78125 4.0625,3.796875 4.0625,10.34375 0,6.578125 -4.03125,10.34375 Q 38.875,34.625 31.78125,34.625 Z m -9.859375,4.1875 Q 15.578125,40.375 12.03125,44.71875 8.5,49.078125 8.5,55.328125 q 0,8.734375 6.21875,13.8125 6.234375,5.078125 17.0625,5.078125 10.890625,0 17.09375,-5.078125 6.203125,-5.078125 6.203125,-13.8125 0,-6.25 -3.546875,-10.609375 Q 48,40.375 41.703125,38.8125 q 7.125,-1.65625 11.09375,-6.5 3.984375,-4.828125 3.984375,-11.796875 0,-10.609375 -6.46875,-16.28125 -6.46875,-5.65625 -18.53125,-5.65625 -12.046875,0 -18.53125,5.65625 -6.46875,5.671875 -6.46875,16.28125 0,6.96875 4,11.796875 4.015625,4.84375 11.140625,6.5 z M 18.3125,54.390625 q 0,-5.65625 3.53125,-8.828125 3.546875,-3.171875 9.9375,-3.171875 6.359375,0 9.9375,3.171875 3.59375,3.171875 3.59375,8.828125 0,5.671875 -3.59375,8.84375 -3.578125,3.171875 -9.9375,3.171875 -6.390625,0 -9.9375,-3.171875 Q 18.3125,60.0625 18.3125,54.390625 Z"
                 id="DejaVuSans-56" />
            </defs>
            <g
               transform="matrix(0.14,0,0,-0.14,522.14977,250.96771)"
               id="g27795">
              <use
                 xlink:href="#DejaVuSans-56"
                 id="use27791" />
              <use
                 x="63.623047"
                 xlink:href="#DejaVuSans-48"
                 id="use27793" />
            </g>
          </g>
        </g>
        <g
           id="xtick_8">
          <g
             id="line2d_15">
            <path
               clip-path="url(#p584e435b63)"
               d="M 603.48341,236.8299 V 20.4174"
               style="fill:none;stroke:#cbcbcb"
               id="path27799" />
          </g>
          <g
             id="line2d_16" />
          <g
             id="text_8">
            <!-- 85 -->
            <g
               transform="matrix(0.14,0,0,-0.14,594.57591,250.96771)"
               id="g27807">
              <use
                 xlink:href="#DejaVuSans-56"
                 id="use27803" />
              <use
                 x="63.623047"
                 xlink:href="#DejaVuSans-53"
                 id="use27805" />
            </g>
          </g>
        </g>
        <g
           id="xtick_9">
          <g
             id="line2d_17">
            <path
               clip-path="url(#p584e435b63)"
               d="M 675.90954,236.8299 V 20.4174"
               style="fill:none;stroke:#cbcbcb"
               id="path27811" />
          </g>
          <g
             id="line2d_18" />
          <g
             id="text_9">
            <!-- 90 -->
            <defs
               id="defs27816">
              <path
                 d="M 10.984375,1.515625 V 10.5 Q 14.703125,8.734375 18.5,7.8125 q 3.8125,-0.921875 7.484375,-0.921875 9.765625,0 14.90625,6.5625 5.15625,6.5625 5.890625,19.953125 -2.828125,-4.203125 -7.1875,-6.453125 -4.34375,-2.25 -9.609375,-2.25 -10.9375,0 -17.3125,6.609375 -6.375,6.625 -6.375,18.109375 0,11.21875 6.640625,18 6.640625,6.796875 17.671875,6.796875 12.65625,0 19.3125,-9.703125 6.671875,-9.6875 6.671875,-28.140625 0,-17.234375 -8.1875,-27.515625 -8.171875,-10.28125 -21.984375,-10.28125 -3.71875,0 -7.53125,0.734375 -3.796875,0.734375 -7.90625,2.203125 z m 19.625,30.90625 q 6.640625,0 10.515625,4.53125 3.890625,4.546875 3.890625,12.46875 0,7.859375 -3.890625,12.421875 -3.875,4.5625 -10.515625,4.5625 -6.640625,0 -10.515625,-4.5625 -3.875,-4.5625 -3.875,-12.421875 0,-7.921875 3.875,-12.46875 3.875,-4.53125 10.515625,-4.53125 z"
                 id="DejaVuSans-57" />
            </defs>
            <g
               transform="matrix(0.14,0,0,-0.14,667.00204,250.96771)"
               id="g27822">
              <use
                 xlink:href="#DejaVuSans-57"
                 id="use27818" />
              <use
                 x="63.623047"
                 xlink:href="#DejaVuSans-48"
                 id="use27820" />
            </g>
          </g>
        </g>
        <g
           id="text_10">
          <!-- Ratio (%) -->
          <defs
             id="defs27835">
            <path
               d="m 44.390625,34.1875 q 3.171875,-1.078125 6.171875,-4.59375 3,-3.515625 6.03125,-9.671875 L 66.609375,0 H 56 l -9.3125,18.703125 q -3.625,7.328125 -7.015625,9.71875 -3.390625,2.390625 -9.25,2.390625 h -10.75 V 0 H 9.8125 v 72.90625 h 22.265625 q 12.5,0 18.65625,-5.234375 6.15625,-5.21875 6.15625,-15.765625 0,-6.890625 -3.203125,-11.4375 -3.203125,-4.53125 -9.296875,-6.28125 z m -24.71875,30.609375 v -25.875 h 12.40625 q 7.125,0 10.765625,3.296875 3.640625,3.296875 3.640625,9.6875 0,6.390625 -3.640625,9.640625 -3.640625,3.25 -10.765625,3.25 z"
               id="DejaVuSans-82" />
            <path
               d="m 34.28125,27.484375 q -10.890625,0 -15.09375,-2.484375 -4.203125,-2.484375 -4.203125,-8.5 0,-4.78125 3.15625,-7.59375 3.15625,-2.796875 8.5625,-2.796875 7.484375,0 12,5.296875 4.515625,5.296875 4.515625,14.078125 v 2 z m 17.921875,3.71875 V 0 H 43.21875 v 8.296875 q -3.078125,-4.96875 -7.671875,-7.34375 -4.59375,-2.375 -11.234375,-2.375 -8.390625,0 -13.359375,4.71875 Q 6,8.015625 6,15.921875 q 0,9.21875 6.171875,13.90625 6.1875,4.6875 18.4375,4.6875 H 43.21875 v 0.890625 q 0,6.203125 -4.078125,9.59375 -4.078125,3.390625 -11.453125,3.390625 -4.6875,0 -9.140625,-1.125 -4.4375,-1.125 -8.53125,-3.375 v 8.3125 q 4.921875,1.90625 9.5625,2.84375 Q 24.21875,56 28.609375,56 q 11.875,0 17.734375,-6.15625 5.859375,-6.140625 5.859375,-18.640625 z"
               id="DejaVuSans-97" />
            <path
               d="M 18.3125,70.21875 V 54.6875 h 18.5 v -6.984375 h -18.5 v -29.6875 q 0,-6.6875 1.828125,-8.59375 1.828125,-1.90625 7.453125,-1.90625 H 36.8125 V 0 H 27.59375 Q 17.1875,0 13.234375,3.875 9.28125,7.765625 9.28125,18.015625 v 29.6875 H 2.6875 V 54.6875 h 6.59375 v 15.53125 z"
               id="DejaVuSans-116" />
            <path
               d="M 9.421875,54.6875 H 18.40625 V 0 H 9.421875 Z m 0,21.296875 H 18.40625 V 64.59375 H 9.421875 Z"
               id="DejaVuSans-105" />
            <path
               d="m 30.609375,48.390625 q -7.21875,0 -11.421875,-5.640625 -4.203125,-5.640625 -4.203125,-15.453125 0,-9.8125 4.171875,-15.453125 4.1875,-5.640625 11.453125,-5.640625 7.1875,0 11.375,5.65625 4.203125,5.671875 4.203125,15.4375 0,9.71875 -4.203125,15.40625 -4.1875,5.6875 -11.375,5.6875 z m 0,7.609375 q 11.71875,0 18.40625,-7.625 6.703125,-7.609375 6.703125,-21.078125 0,-13.421875 -6.703125,-21.078125 -6.6875,-7.640625 -18.40625,-7.640625 -11.765625,0 -18.4375,7.640625 -6.65625,7.65625 -6.65625,21.078125 0,13.46875 6.65625,21.078125 Q 18.84375,56 30.609375,56 Z"
               id="DejaVuSans-111" />
            <path
               id="DejaVuSans-32"
               d="" />
            <path
               d="M 31,75.875 Q 24.46875,64.65625 21.28125,53.65625 18.109375,42.671875 18.109375,31.390625 18.109375,20.125 21.3125,9.0625 24.515625,-2 31,-13.1875 H 23.1875 Q 15.875,-1.703125 12.234375,9.375 8.59375,20.453125 8.59375,31.390625 q 0,10.890625 3.609375,21.921875 3.625,11.046875 10.984375,22.5625 z"
               id="DejaVuSans-40" />
            <path
               d="m 72.703125,32.078125 q -4.25,0 -6.671875,-3.609375 -2.40625,-3.609375 -2.40625,-10.0625 0,-6.34375 2.40625,-9.984375 2.421875,-3.640625 6.671875,-3.640625 4.15625,0 6.5625,3.640625 2.421875,3.640625 2.421875,9.984375 0,6.40625 -2.421875,10.03125 -2.40625,3.640625 -6.5625,3.640625 z m 0,6.203125 q 7.71875,0 12.25,-5.375 Q 89.5,27.546875 89.5,18.40625 q 0,-9.125 -4.5625,-14.484375 -4.5625,-5.34375 -12.234375,-5.34375 -7.8125,0 -12.359375,5.34375 -4.53125,5.359375 -4.53125,14.484375 0,9.1875 4.5625,14.53125 4.5625,5.34375 12.328125,5.34375 z M 22.3125,68.015625 q -4.203125,0 -6.625,-3.640625 -2.40625,-3.625 -2.40625,-9.984375 0,-6.4375 2.390625,-10.0625 2.390625,-3.609375 6.640625,-3.609375 4.25,0 6.65625,3.609375 2.421875,3.625 2.421875,10.0625 0,6.296875 -2.4375,9.953125 -2.4375,3.671875 -6.640625,3.671875 z m 44.09375,6.203125 h 7.8125 L 28.609375,-1.421875 h -7.8125 z m -44.09375,0 q 7.71875,0 12.296875,-5.34375 4.59375,-5.34375 4.59375,-14.484375 0,-9.21875 -4.5625,-14.546875 -4.5625,-5.328125 -12.328125,-5.328125 -7.765625,0 -12.28125,5.34375 -4.515625,5.359375 -4.515625,14.53125 0,9.09375 4.53125,14.453125 4.546875,5.375 12.265625,5.375 z"
               id="DejaVuSans-37" />
            <path
               d="m 8.015625,75.875 h 7.8125 q 7.3125,-11.515625 10.953125,-22.5625 3.640625,-11.03125 3.640625,-21.921875 0,-10.9375 -3.640625,-22.015625 -3.640625,-11.078125 -10.953125,-22.5625 h -7.8125 Q 14.5,-2 17.703125,9.0625 20.90625,20.125 20.90625,31.390625 q 0,11.28125 -3.203125,22.265625 -3.203125,11 -9.6875,22.21875 z"
               id="DejaVuSans-41" />
          </defs>
          <g
             transform="matrix(0.14,0,0,-0.14,353.74359,268.51709)"
             id="g27855">
            <use
               xlink:href="#DejaVuSans-82"
               id="use27837" />
            <use
               x="69.451172"
               xlink:href="#DejaVuSans-97"
               id="use27839" />
            <use
               x="130.73047"
               xlink:href="#DejaVuSans-116"
               id="use27841" />
            <use
               x="169.93945"
               xlink:href="#DejaVuSans-105"
               id="use27843" />
            <use
               x="197.72266"
               xlink:href="#DejaVuSans-111"
               id="use27845" />
            <use
               x="258.9043"
               xlink:href="#DejaVuSans-32"
               id="use27847" />
            <use
               x="290.69141"
               xlink:href="#DejaVuSans-40"
               id="use27849" />
            <use
               x="329.70508"
               xlink:href="#DejaVuSans-37"
               id="use27851" />
            <use
               x="424.72461"
               xlink:href="#DejaVuSans-41"
               id="use27853" />
          </g>
        </g>
      </g>
      <g
         id="matplotlib.axis_2">
        <g
           id="ytick_1">
          <g
             id="line2d_19">
            <path
               clip-path="url(#p584e435b63)"
               d="M 67.53,236.8299 H 704.88"
               style="fill:none;stroke:#cbcbcb"
               id="path27859" />
          </g>
          <g
             id="line2d_20" />
          <g
             id="text_11">
            <!-- 0.60 -->
            <defs
               id="defs27864">
              <path
                 d="M 10.6875,12.40625 H 21 V 0 H 10.6875 Z"
                 id="DejaVuSans-46" />
            </defs>
            <g
               transform="matrix(0.14,0,0,-0.14,32.858125,242.14881)"
               id="g27874">
              <use
                 xlink:href="#DejaVuSans-48"
                 id="use27866" />
              <use
                 x="63.623047"
                 xlink:href="#DejaVuSans-46"
                 id="use27868" />
              <use
                 x="95.410156"
                 xlink:href="#DejaVuSans-54"
                 id="use27870" />
              <use
                 x="159.0332"
                 xlink:href="#DejaVuSans-48"
                 id="use27872" />
            </g>
          </g>
        </g>
        <g
           id="ytick_2">
          <g
             id="line2d_21">
            <path
               clip-path="url(#p584e435b63)"
               d="M 67.53,182.72677 H 704.88"
               style="fill:none;stroke:#cbcbcb"
               id="path27878" />
          </g>
          <g
             id="line2d_22" />
          <g
             id="text_12">
            <!-- 0.65 -->
            <g
               transform="matrix(0.14,0,0,-0.14,32.858125,188.04568)"
               id="g27890">
              <use
                 xlink:href="#DejaVuSans-48"
                 id="use27882" />
              <use
                 x="63.623047"
                 xlink:href="#DejaVuSans-46"
                 id="use27884" />
              <use
                 x="95.410156"
                 xlink:href="#DejaVuSans-54"
                 id="use27886" />
              <use
                 x="159.0332"
                 xlink:href="#DejaVuSans-53"
                 id="use27888" />
            </g>
          </g>
        </g>
        <g
           id="ytick_3">
          <g
             id="line2d_23">
            <path
               clip-path="url(#p584e435b63)"
               d="M 67.53,128.62365 H 704.88"
               style="fill:none;stroke:#cbcbcb"
               id="path27894" />
          </g>
          <g
             id="line2d_24" />
          <g
             id="text_13">
            <!-- 0.70 -->
            <g
               transform="matrix(0.14,0,0,-0.14,32.858125,133.94256)"
               id="g27906">
              <use
                 xlink:href="#DejaVuSans-48"
                 id="use27898" />
              <use
                 x="63.623047"
                 xlink:href="#DejaVuSans-46"
                 id="use27900" />
              <use
                 x="95.410156"
                 xlink:href="#DejaVuSans-55"
                 id="use27902" />
              <use
                 x="159.0332"
                 xlink:href="#DejaVuSans-48"
                 id="use27904" />
            </g>
          </g>
        </g>
        <g
           id="ytick_4">
          <g
             id="line2d_25">
            <path
               clip-path="url(#p584e435b63)"
               d="M 67.53,74.520525 H 704.88"
               style="fill:none;stroke:#cbcbcb"
               id="path27910" />
          </g>
          <g
             id="line2d_26" />
          <g
             id="text_14">
            <!-- 0.75 -->
            <g
               transform="matrix(0.14,0,0,-0.14,32.858125,79.839431)"
               id="g27922">
              <use
                 xlink:href="#DejaVuSans-48"
                 id="use27914" />
              <use
                 x="63.623047"
                 xlink:href="#DejaVuSans-46"
                 id="use27916" />
              <use
                 x="95.410156"
                 xlink:href="#DejaVuSans-55"
                 id="use27918" />
              <use
                 x="159.0332"
                 xlink:href="#DejaVuSans-53"
                 id="use27920" />
            </g>
          </g>
        </g>
        <g
           id="ytick_5">
          <g
             id="line2d_27">
            <path
               clip-path="url(#p584e435b63)"
               d="M 67.53,20.4174 H 704.88"
               style="fill:none;stroke:#cbcbcb"
               id="path27926" />
          </g>
          <g
             id="line2d_28" />
          <g
             id="text_15">
            <!-- 0.80 -->
            <g
               transform="matrix(0.14,0,0,-0.14,32.858125,25.736306)"
               id="g27938">
              <use
                 xlink:href="#DejaVuSans-48"
                 id="use27930" />
              <use
                 x="63.623047"
                 xlink:href="#DejaVuSans-46"
                 id="use27932" />
              <use
                 x="95.410156"
                 xlink:href="#DejaVuSans-56"
                 id="use27934" />
              <use
                 x="159.0332"
                 xlink:href="#DejaVuSans-48"
                 id="use27936" />
            </g>
          </g>
        </g>
        <g
           id="text_16">
          <!-- Accuracy -->
          <defs
             id="defs27947">
            <path
               d="M 34.1875,63.1875 20.796875,26.90625 h 26.8125 z m -5.578125,9.71875 h 11.1875 L 67.578125,0 h -10.25 L 50.6875,18.703125 H 17.828125 L 11.1875,0 H 0.78125 Z"
               id="DejaVuSans-65" />
            <path
               d="M 48.78125,52.59375 V 44.1875 q -3.8125,2.109375 -7.640625,3.15625 -3.828125,1.046875 -7.734375,1.046875 -8.75,0 -13.59375,-5.546875 -4.828125,-5.53125 -4.828125,-15.546875 0,-10.015625 4.828125,-15.5625 4.84375,-5.53125 13.59375,-5.53125 3.90625,0 7.734375,1.046875 3.828125,1.046875 7.640625,3.15625 v -8.3125 q -3.765625,-1.75 -7.796875,-2.625 -4.015625,-0.890625 -8.5625,-0.890625 -12.359375,0 -19.640625,7.765625 -7.265625,7.765625 -7.265625,20.953125 0,13.375 7.34375,21.03125 Q 20.21875,56 33.015625,56 q 4.140625,0 8.09375,-0.859375 3.953125,-0.84375 7.671875,-2.546875 z"
               id="DejaVuSans-99" />
            <path
               d="M 8.5,21.578125 V 54.6875 h 8.984375 V 21.921875 q 0,-7.765625 3.015625,-11.65625 3.03125,-3.875 9.09375,-3.875 7.265625,0 11.484375,4.640625 4.234375,4.640625 4.234375,12.65625 v 31 h 8.984375 V 0 H 45.3125 V 8.40625 Q 42.046875,3.421875 37.71875,1 33.40625,-1.421875 27.6875,-1.421875 18.265625,-1.421875 13.375,4.4375 8.5,10.296875 8.5,21.578125 Z M 31.109375,56 Z"
               id="DejaVuSans-117" />
            <path
               d="m 41.109375,46.296875 q -1.515625,0.875 -3.296875,1.28125 Q 36.03125,48 33.890625,48 26.265625,48 22.1875,43.046875 18.109375,38.09375 18.109375,28.8125 V 0 h -9.03125 v 54.6875 h 9.03125 v -8.5 q 2.84375,4.984375 7.375,7.390625 Q 30.03125,56 36.53125,56 q 0.921875,0 2.046875,-0.125 1.125,-0.109375 2.484375,-0.359375 z"
               id="DejaVuSans-114" />
            <path
               d="M 32.171875,-5.078125 Q 28.375,-14.84375 24.75,-17.8125 q -3.609375,-2.984375 -9.65625,-2.984375 h -7.1875 v 7.515625 h 5.28125 q 3.703125,0 5.75,1.765625 2.0625,1.75 4.546875,8.296875 L 25.09375,0.875 2.984375,54.6875 H 12.5 L 29.59375,11.921875 46.6875,54.6875 h 9.515625 z"
               id="DejaVuSans-121" />
          </defs>
          <g
             transform="matrix(0,-0.14,-0.14,0,25.946562,160.70443)"
             id="g27965">
            <use
               xlink:href="#DejaVuSans-65"
               id="use27949" />
            <use
               x="68.392578"
               xlink:href="#DejaVuSans-99"
               id="use27951" />
            <use
               x="123.37305"
               xlink:href="#DejaVuSans-99"
               id="use27953" />
            <use
               x="178.35352"
               xlink:href="#DejaVuSans-117"
               id="use27955" />
            <use
               x="241.73242"
               xlink:href="#DejaVuSans-114"
               id="use27957" />
            <use
               x="282.8457"
               xlink:href="#DejaVuSans-97"
               id="use27959" />
            <use
               x="344.125"
               xlink:href="#DejaVuSans-99"
               id="use27961" />
            <use
               x="399.10547"
               xlink:href="#DejaVuSans-121"
               id="use27963" />
          </g>
        </g>
      </g>
      <g
         id="line2d_29">
        <path
           clip-path="url(#p584e435b63)"
           d="M 96.500455,141.6084 241.35273,139.44427 386.205,90.751463 l 144.85227,-34.626 144.85227,35.708062"
           style="fill:none;stroke:#000000;stroke-width:1.5;stroke-dasharray:5.55, 2.4;stroke-dashoffset:0"
           id="path27969" />
        <defs
           id="defs27972">
          <path
             d="M -1.5,3 0,1.5 1.5,3 3,1.5 1.5,0 3,-1.5 1.5,-3 0,-1.5 -1.5,-3 -3,-1.5 -1.5,0 -3,1.5 Z"
             id="m8470db796e"
             style="stroke:#000000;stroke-linejoin:miter" />
        </defs>
        <g
           clip-path="url(#p584e435b63)"
           id="g27984">
          <use
             style="stroke:#000000;stroke-linejoin:miter"
             x="96.500458"
             xlink:href="#m8470db796e"
             y="141.6084"
             id="use27974" />
          <use
             style="stroke:#000000;stroke-linejoin:miter"
             x="241.35272"
             xlink:href="#m8470db796e"
             y="139.44427"
             id="use27976" />
          <use
             style="stroke:#000000;stroke-linejoin:miter"
             x="386.20499"
             xlink:href="#m8470db796e"
             y="90.751465"
             id="use27978" />
          <use
             style="stroke:#000000;stroke-linejoin:miter"
             x="531.05725"
             xlink:href="#m8470db796e"
             y="56.125462"
             id="use27980" />
          <use
             style="stroke:#000000;stroke-linejoin:miter"
             x="675.90955"
             xlink:href="#m8470db796e"
             y="91.833527"
             id="use27982" />
        </g>
      </g>
      <g
         id="patch_3">
        <path
           d="M 67.53,236.8299 V 20.4174"
           style="fill:none;stroke:#f0f0f0;stroke-width:3;stroke-linecap:square;stroke-linejoin:miter"
           id="path27987" />
      </g>
      <g
         id="patch_4">
        <path
           d="M 704.88,236.8299 V 20.4174"
           style="fill:none;stroke:#f0f0f0;stroke-width:3;stroke-linecap:square;stroke-linejoin:miter"
           id="path27990" />
      </g>
      <g
         id="patch_5">
        <path
           d="M 67.53,236.8299 H 704.88"
           style="fill:none;stroke:#f0f0f0;stroke-width:3;stroke-linecap:square;stroke-linejoin:miter"
           id="path27993" />
      </g>
      <g
         id="patch_6">
        <path
           d="M 67.53,20.4174 H 704.88"
           style="fill:none;stroke:#f0f0f0;stroke-width:3;stroke-linecap:square;stroke-linejoin:miter"
           id="path27996" />
      </g>
      <g
         id="legend_1">
        <g
           id="patch_7">
          <path
             d="M 556.30281,52.166775 H 695.08 q 2.8,0 2.8,-2.8 V 30.2174 q 0,-2.8 -2.8,-2.8 H 556.30281 q -2.8,0 -2.8,2.8 v 19.149375 q 0,2.8 2.8,2.8 z"
             style="opacity:0.8;fill:#f0f0f0;stroke:#cccccc;stroke-width:0.5;stroke-linejoin:miter"
             id="path27999" />
        </g>
        <g
           id="line2d_30">
          <path
             d="m 559.10281,38.755213 h 28"
             style="fill:none;stroke:#000000;stroke-width:1.5;stroke-dasharray:5.55, 2.4;stroke-dashoffset:0"
             id="path28002" />
        </g>
        <g
           id="line2d_31">
          <g
             id="g28007">
            <use
               style="stroke:#000000;stroke-linejoin:miter"
               x="573.10278"
               xlink:href="#m8470db796e"
               y="38.755215"
               id="use28005" />
          </g>
        </g>
        <g
           id="text_17">
          <!-- robustSRMAE -->
          <defs
             id="defs28015">
            <path
               d="m 48.6875,27.296875 q 0,9.90625 -4.078125,15.546875 -4.078125,5.640625 -11.203125,5.640625 -7.140625,0 -11.21875,-5.640625 -4.078125,-5.640625 -4.078125,-15.546875 0,-9.90625 4.078125,-15.546875 4.078125,-5.640625 11.21875,-5.640625 7.125,0 11.203125,5.640625 4.078125,5.640625 4.078125,15.546875 z m -30.578125,19.09375 q 2.84375,4.875 7.15625,7.234375 Q 29.59375,56 35.59375,56 q 9.96875,0 16.1875,-7.90625 6.234375,-7.90625 6.234375,-20.796875 0,-12.890625 -6.234375,-20.8125 -6.21875,-7.90625 -16.1875,-7.90625 -6,0 -10.328125,2.375 -4.3125,2.375 -7.15625,7.25 V 0 h -9.03125 v 75.984375 h 9.03125 z"
               id="DejaVuSans-98" />
            <path
               d="m 44.28125,53.078125 v -8.5 Q 40.484375,46.53125 36.375,47.5 q -4.09375,0.984375 -8.5,0.984375 -6.6875,0 -10.03125,-2.046875 Q 14.5,44.390625 14.5,40.28125 q 0,-3.125 2.390625,-4.90625 2.390625,-1.78125 9.625,-3.390625 l 3.078125,-0.6875 Q 39.15625,29.25 43.1875,25.515625 47.21875,21.78125 47.21875,15.09375 q 0,-7.625 -6.03125,-12.078125 -6.03125,-4.4375 -16.578125,-4.4375 -4.390625,0 -9.15625,0.859375 Q 10.6875,0.296875 5.421875,2 v 9.28125 q 4.984375,-2.59375 9.8125,-3.890625 4.828125,-1.28125 9.578125,-1.28125 6.34375,0 9.75,2.171875 3.421875,2.171875 3.421875,6.125 0,3.65625 -2.46875,5.609375 -2.453125,1.953125 -10.8125,3.765625 l -3.125,0.734375 q -8.34375,1.75 -12.0625,5.390625 -3.703125,3.640625 -3.703125,9.984375 0,7.71875 5.46875,11.90625 Q 16.75,56 26.8125,56 q 4.96875,0 9.359375,-0.734375 4.40625,-0.71875 8.109375,-2.1875 z"
               id="DejaVuSans-115" />
            <path
               d="m 53.515625,70.515625 v -9.625 q -5.609375,2.6875 -10.59375,4 -4.984375,1.328125 -9.625,1.328125 -8.046875,0 -12.421875,-3.125 -4.375,-3.125 -4.375,-8.890625 0,-4.84375 2.90625,-7.3125 2.90625,-2.453125 11.015625,-3.96875 L 36.375,41.703125 Q 47.40625,39.59375 52.65625,34.296875 57.90625,29 57.90625,20.125 q 0,-10.609375 -7.109375,-16.078125 -7.09375,-5.46875 -20.8125,-5.46875 -5.171875,0 -11.015625,1.171875 Q 13.140625,0.921875 6.890625,3.21875 V 13.375 q 6,-3.359375 11.765625,-5.078125 5.765625,-1.703125 11.328125,-1.703125 8.4375,0 13.03125,3.3125 4.59375,3.328125 4.59375,9.484375 0,5.359375 -3.296875,8.390625 Q 41.015625,30.8125 33.5,32.328125 L 27.484375,33.5 q -11.03125,2.1875 -15.96875,6.875 -4.921875,4.6875 -4.921875,13.046875 0,9.671875 6.8125,15.234375 6.8125,5.5625 18.765625,5.5625 5.140625,0 10.453125,-0.9375 5.328125,-0.921875 10.890625,-2.765625 z"
               id="DejaVuSans-83" />
            <path
               d="M 9.8125,72.90625 H 24.515625 L 43.109375,23.296875 61.8125,72.90625 H 76.515625 V 0 h -9.625 v 64.015625 l -18.796875,-50 H 38.1875 l -18.796875,50 V 0 H 9.8125 Z"
               id="DejaVuSans-77" />
            <path
               d="m 9.8125,72.90625 h 46.09375 v -8.3125 H 19.671875 V 43.015625 h 34.71875 V 34.71875 H 19.671875 V 8.296875 H 56.78125 V 0 H 9.8125 Z"
               id="DejaVuSans-69" />
          </defs>
          <g
             transform="matrix(0.14,0,0,-0.14,598.30281,43.655213)"
             id="g28039">
            <use
               xlink:href="#DejaVuSans-114"
               id="use28017" />
            <use
               x="41.082031"
               xlink:href="#DejaVuSans-111"
               id="use28019" />
            <use
               x="102.26367"
               xlink:href="#DejaVuSans-98"
               id="use28021" />
            <use
               x="165.74023"
               xlink:href="#DejaVuSans-117"
               id="use28023" />
            <use
               x="229.11914"
               xlink:href="#DejaVuSans-115"
               id="use28025" />
            <use
               x="281.21875"
               xlink:href="#DejaVuSans-116"
               id="use28027" />
            <use
               x="320.42773"
               xlink:href="#DejaVuSans-83"
               id="use28029" />
            <use
               x="383.9043"
               xlink:href="#DejaVuSans-82"
               id="use28031" />
            <use
               x="453.38672"
               xlink:href="#DejaVuSans-77"
               id="use28033" />
            <use
               x="539.66602"
               xlink:href="#DejaVuSans-65"
               id="use28035" />
            <use
               x="608.07422"
               xlink:href="#DejaVuSans-69"
               id="use28037" />
          </g>
        </g>
      </g>
    </g>
  </g>
  <defs
     id="defs28048">
    <clipPath
       id="p584e435b63">
      <rect
         height="216.41251"
         width="637.34998"
         x="67.529999"
         y="20.4174"
         id="rect28045" />
    </clipPath>
  </defs>
</svg>
